<svg id="图层_1" data-name="图层 1" xmlns="http://www.w3.org/2000/svg" viewBox="0 0 117.99 595.28"><defs><style>.cls-1{fill:#d1ff52;}.cls-2{fill:#1c1c1f;}</style></defs><title>画板 1 副本 16周边</title><rect class="cls-1" x="31.66" y="20.28" width="43.54" height="558.85"/><rect class="cls-2" x="48.53" y="101.28" width="5.17" height="15.33"/><rect class="cls-2" x="61.27" y="100.59" width="5.18" height="16.02"/><rect class="cls-2" x="53.71" y="116.83" width="7.55" height="4.76"/><rect class="cls-2" x="40.96" y="96.11" width="7.57" height="5.17"/><rect class="cls-2" x="57.46" y="92.35" width="5.24" height="12.75" transform="translate(158.81 38.64) rotate(90)"/><path class="cls-2" d="M56.08,129.68H53.47v-1.82h7.8v2.76a4.61,4.61,0,0,1-.19,1.42,2.75,2.75,0,0,1-.54,1,2.17,2.17,0,0,1-.81.57,2.79,2.79,0,0,1-1,.18,2.9,2.9,0,0,1-1.07-.19,2.17,2.17,0,0,1-.83-.57,2.66,2.66,0,0,1-.55-1,4.52,4.52,0,0,1-.19-1.4Zm1.36,0v.94a1.36,1.36,0,0,0,.34,1,1.38,1.38,0,0,0,.94.31,1.48,1.48,0,0,0,.49-.08,1.09,1.09,0,0,0,.38-.25,1,1,0,0,0,.24-.41,1.74,1.74,0,0,0,.09-.59v-.94Z"/><path class="cls-2" d="M53.47,142v-1.83h3.3V137h-3.3v-1.82h7.8V137H58v3.17h3.26V142Z"/><path class="cls-2" d="M53.47,150.93v-1.41a.64.64,0,0,1,.11-.39.54.54,0,0,1,.28-.21l1.36-.46v-3L53.86,145a.53.53,0,0,1-.27-.21.6.6,0,0,1-.12-.38V143l7.8,3v1.85Zm3-5V148l2.14-.71.48-.17.6-.18-.61-.18-.48-.17Z"/><path class="cls-2" d="M54.91,153.8v2.89H53.47V152h7.8v1.81Z"/><path class="cls-2" d="M53.47,165.24v-1.4a.6.6,0,0,1,.11-.39.54.54,0,0,1,.28-.21l1.36-.46v-3l-1.36-.46a.66.66,0,0,1-.27-.21.6.6,0,0,1-.12-.38v-1.41l7.8,3v1.85Zm3-5v2.13l2.14-.72.48-.16.6-.19c-.22,0-.42-.11-.61-.17l-.48-.17Z"/><path class="cls-2" d="M48,129a.58.58,0,0,1-.05.14.28.28,0,0,1-.08.12.92.92,0,0,1-.14.14L43,133.13l.43,0H48v1.6H40.15v-.94a1,1,0,0,1,.06-.36.86.86,0,0,1,.24-.28l4.65-3.68-.4,0H40.15v-1.6H48v1C48,128.9,48,129,48,129Z"/><path class="cls-2" d="M48,141.42h-1.4v-3.2H44.74v2.45H43.4v-2.45H41.54v3.2H40.15v-5H48Z"/><path class="cls-2" d="M48,148.55H46.52v-2.2H40.15v-1.81h6.37v-2.2H48Z"/><path class="cls-2" d="M48,149.14v1.52a.67.67,0,0,1-.11.39.47.47,0,0,1-.29.21l-4.07,1.07-.42.11-.47.08a3.23,3.23,0,0,1,.47.12l.42.12L47.56,154a.67.67,0,0,1,.28.21.62.62,0,0,1,.12.38v.54a.67.67,0,0,1-.11.39.53.53,0,0,1-.29.21L43.49,157l-.4.13-.45.11.45.09.4.09,4.07,1.07a.51.51,0,0,1,.28.21.6.6,0,0,1,.12.38v1.43l-7.81-2.41v-1.64L45,155l.24-.08.29-.08-.29-.08-.24-.07-4.84-1.49v-1.64Z"/><path class="cls-2" d="M44.06,169.34a4.31,4.31,0,0,1-1.58-.29,3.78,3.78,0,0,1-1.27-.83,3.66,3.66,0,0,1-.84-1.28,4.18,4.18,0,0,1-.31-1.65,4.23,4.23,0,0,1,.31-1.66,3.66,3.66,0,0,1,2.11-2.11,4.42,4.42,0,0,1,3.15,0,3.62,3.62,0,0,1,1.26.82,4,4,0,0,1,.85,1.29,4.42,4.42,0,0,1,.3,1.66,4.18,4.18,0,0,1-.31,1.65,3.66,3.66,0,0,1-.84,1.28,3.78,3.78,0,0,1-1.27.83A4.2,4.2,0,0,1,44.06,169.34Zm0-1.86a3.39,3.39,0,0,0,1-.15,2.1,2.1,0,0,0,.78-.43,1.71,1.71,0,0,0,.49-.69,2.25,2.25,0,0,0,.18-.92,2.35,2.35,0,0,0-.18-.94,1.78,1.78,0,0,0-.49-.69,2.1,2.1,0,0,0-.78-.43,3.72,3.72,0,0,0-2.09,0,2.23,2.23,0,0,0-.79.43,1.89,1.89,0,0,0-.49.69,2.54,2.54,0,0,0-.17.94,2.43,2.43,0,0,0,.17.92,1.81,1.81,0,0,0,.49.69,2.23,2.23,0,0,0,.79.43A3.41,3.41,0,0,0,44.06,167.48Z"/><path class="cls-2" d="M43,172.45H40.15v-1.82H48v2.54a5.08,5.08,0,0,1-.18,1.45,2.67,2.67,0,0,1-.48,1,1.78,1.78,0,0,1-.74.55,2.32,2.32,0,0,1-.92.17,2.46,2.46,0,0,1-.72-.1,2.23,2.23,0,0,1-1.13-.79,2.47,2.47,0,0,1-.37-.68,1.36,1.36,0,0,1-.23.34,1.43,1.43,0,0,1-.32.28L40.15,177v-1.64a.69.69,0,0,1,.34-.65l2.27-1.3a.51.51,0,0,0,.21-.2.58.58,0,0,0,.07-.32Zm1.24,0v.72a1.89,1.89,0,0,0,.1.63,1.08,1.08,0,0,0,.26.43,1,1,0,0,0,.39.24,1.51,1.51,0,0,0,.48.08,1,1,0,0,0,.8-.34,1.57,1.57,0,0,0,.29-1v-.72Z"/><path class="cls-2" d="M44.79,180v.29a.66.66,0,0,0,.26.58l2.55,1.76a.68.68,0,0,1,.28.33,1.17,1.17,0,0,1,.08.45V185l-3.16-2.31a1.41,1.41,0,0,1-.28-.26,1.48,1.48,0,0,1-.19-.27,1.36,1.36,0,0,1-.21.37,1.34,1.34,0,0,1-.35.31l-3.62,2.36v-1.62a2,2,0,0,1,0-.27,1.06,1.06,0,0,1,.06-.19.76.76,0,0,1,.11-.14l.14-.11,2.72-1.77a.49.49,0,0,0,.21-.24,1.09,1.09,0,0,0,.06-.4V180H40.15v-1.81H48V180Z"/></svg>