<svg id="图层_1" data-name="图层 1" xmlns="http://www.w3.org/2000/svg" viewBox="0 0 119.04 595.28"><defs><style>.cls-1{fill:#d1ff52;}.cls-2{fill:#1c1c1d;}</style></defs><title>画板 24周边</title><polygon class="cls-1" points="79.23 578.03 31.74 579.58 31.74 20.8 79.23 20.8 79.23 578.03"/><rect class="cls-2" x="53.96" y="101.92" width="4.18" height="12.39"/><rect class="cls-2" x="64.26" y="101.36" width="4.19" height="12.95"/><rect class="cls-2" x="58.15" y="114.49" width="6.11" height="3.85"/><rect class="cls-2" x="46.99" y="97.74" width="6.97" height="4.18"/><rect class="cls-2" x="61.18" y="94.7" width="4.24" height="10.31" transform="translate(163.15 36.55) rotate(90)"/><path class="cls-2" d="M47,121.6H68.21v4.67H59.86v9.15h8.35v4.67H47v-4.67h9.28v-9.15H47Z"/><path class="cls-2" d="M47,165.79v-5.08l4.82-2v-9.25L47,147.53v-5l21.22,9v4.94Zm8.4-8.6L63.26,154l-7.87-3.13Z"/><path class="cls-2" d="M47,168.39H68v4.67H50.57v11.62H47Z"/><path class="cls-2" d="M47,208.87v-5.08l4.82-2v-9.25L47,190.61v-5l21.22,9v4.94Zm8.4-8.6,7.87-3.19L55.39,194Z"/></svg>