<svg id="图层_1" data-name="图层 1" xmlns="http://www.w3.org/2000/svg" viewBox="0 0 355.85 595.28"><defs><style>.cls-1{fill:#d1ff52;}</style></defs><title>画板 24 副本周边</title><rect class="cls-1" x="263.86" y="349.93" width="5.74" height="6.53"/><rect class="cls-1" x="258.13" y="343.4" width="5.74" height="6.53"/><rect class="cls-1" x="252.39" y="349.93" width="5.74" height="6.53"/><rect class="cls-1" x="269.6" y="343.4" width="5.74" height="6.53"/><rect class="cls-1" x="263.86" y="336.86" width="5.74" height="6.53"/><rect class="cls-1" x="258.13" y="336.86" width="5.74" height="6.53"/><rect class="cls-1" x="281.07" y="336.86" width="5.74" height="6.53"/><rect class="cls-1" x="281.07" y="330.33" width="5.74" height="6.53"/><rect class="cls-1" x="275.34" y="343.4" width="5.74" height="6.53"/><rect class="cls-1" x="269.54" y="330.33" width="5.74" height="6.53"/><rect class="cls-1" x="275.34" y="349.93" width="5.74" height="6.53"/><rect class="cls-1" x="281.07" y="349.93" width="5.74" height="6.53"/><rect class="cls-1" x="252.39" y="324" width="5.74" height="6.53"/><rect class="cls-1" x="263.93" y="324" width="5.74" height="6.53"/><rect class="cls-1" x="258.13" y="317.46" width="5.74" height="6.53"/><rect class="cls-1" x="263.86" y="317.46" width="5.74" height="6.53"/><rect class="cls-1" x="286.69" y="343.4" width="5.74" height="6.53"/><rect class="cls-1" x="286.63" y="330.33" width="5.74" height="6.53"/><rect class="cls-1" x="292.39" y="336.86" width="5.74" height="6.53"/><rect class="cls-1" x="292.33" y="349.93" width="5.74" height="6.53"/><rect class="cls-1" x="292.33" y="324" width="5.74" height="6.53"/><rect class="cls-1" x="286.69" y="324" width="5.74" height="6.53"/><rect class="cls-1" x="281.07" y="317.46" width="5.74" height="6.53"/><rect class="cls-1" x="252.39" y="336.86" width="5.74" height="6.53"/><rect class="cls-1" x="275.34" y="324" width="5.74" height="6.53"/><rect class="cls-1" x="263.86" y="388.74" width="5.74" height="6.53"/><rect class="cls-1" x="258.13" y="382.21" width="5.74" height="6.53"/><rect class="cls-1" x="252.39" y="388.74" width="5.74" height="6.53"/><rect class="cls-1" x="269.6" y="382.21" width="5.74" height="6.53"/><rect class="cls-1" x="263.86" y="375.67" width="5.74" height="6.53"/><rect class="cls-1" x="258.13" y="375.67" width="5.74" height="6.53"/><rect class="cls-1" x="281.07" y="375.67" width="5.74" height="6.53"/><rect class="cls-1" x="281.07" y="369.14" width="5.74" height="6.53"/><rect class="cls-1" x="275.34" y="382.21" width="5.74" height="6.53"/><rect class="cls-1" x="269.54" y="369.14" width="5.74" height="6.53"/><rect class="cls-1" x="275.34" y="388.74" width="5.74" height="6.53"/><rect class="cls-1" x="281.07" y="388.74" width="5.74" height="6.53"/><rect class="cls-1" x="252.39" y="362.81" width="5.74" height="6.53"/><rect class="cls-1" x="263.93" y="362.81" width="5.74" height="6.53"/><rect class="cls-1" x="258.13" y="356.27" width="5.74" height="6.53"/><rect class="cls-1" x="263.86" y="356.27" width="5.74" height="6.53"/><rect class="cls-1" x="286.69" y="382.21" width="5.74" height="6.53"/><rect class="cls-1" x="286.63" y="369.14" width="5.74" height="6.53"/><rect class="cls-1" x="292.39" y="375.67" width="5.74" height="6.53"/><rect class="cls-1" x="292.33" y="388.74" width="5.74" height="6.53"/><rect class="cls-1" x="258.13" y="388.74" width="5.74" height="6.53"/><rect class="cls-1" x="292.33" y="362.81" width="5.74" height="6.53"/><rect class="cls-1" x="286.69" y="362.81" width="5.74" height="6.53"/><rect class="cls-1" x="281.07" y="356.27" width="5.74" height="6.53"/><rect class="cls-1" x="252.39" y="375.67" width="5.74" height="6.53"/><rect class="cls-1" x="275.34" y="362.81" width="5.74" height="6.53"/><rect class="cls-1" x="263.86" y="265.78" width="5.74" height="6.53"/><rect class="cls-1" x="258.13" y="259.24" width="5.74" height="6.53"/><rect class="cls-1" x="252.39" y="265.78" width="5.74" height="6.53"/><rect class="cls-1" x="269.6" y="259.24" width="5.74" height="6.53"/><rect class="cls-1" x="263.86" y="252.71" width="5.74" height="6.53"/><rect class="cls-1" x="258.13" y="252.71" width="5.74" height="6.53"/><rect class="cls-1" x="281.07" y="252.71" width="5.74" height="6.53"/><rect class="cls-1" x="281.07" y="246.18" width="5.74" height="6.53"/><rect class="cls-1" x="275.34" y="259.24" width="5.74" height="6.53"/><rect class="cls-1" x="269.54" y="246.18" width="5.74" height="6.53"/><rect class="cls-1" x="275.34" y="265.78" width="5.74" height="6.53"/><rect class="cls-1" x="281.07" y="265.78" width="5.74" height="6.53"/><rect class="cls-1" x="252.39" y="239.84" width="5.74" height="6.53"/><rect class="cls-1" x="263.93" y="239.84" width="5.74" height="6.53"/><rect class="cls-1" x="258.13" y="233.31" width="5.74" height="6.53"/><rect class="cls-1" x="263.86" y="233.31" width="5.74" height="6.53"/><rect class="cls-1" x="286.69" y="259.24" width="5.74" height="6.53"/><rect class="cls-1" x="286.63" y="246.18" width="5.74" height="6.53"/><rect class="cls-1" x="292.39" y="252.71" width="5.74" height="6.53"/><rect class="cls-1" x="292.33" y="265.78" width="5.74" height="6.53"/><rect class="cls-1" x="292.33" y="239.84" width="5.74" height="6.53"/><rect class="cls-1" x="286.69" y="239.84" width="5.74" height="6.53"/><rect class="cls-1" x="281.07" y="233.31" width="5.74" height="6.53"/><rect class="cls-1" x="252.39" y="252.71" width="5.74" height="6.53"/><rect class="cls-1" x="275.34" y="239.84" width="5.74" height="6.53"/><rect class="cls-1" x="263.86" y="304.59" width="5.74" height="6.53"/><rect class="cls-1" x="258.13" y="298.05" width="5.74" height="6.53"/><rect class="cls-1" x="252.39" y="304.59" width="5.74" height="6.53"/><rect class="cls-1" x="269.6" y="298.05" width="5.74" height="6.53"/><rect class="cls-1" x="263.86" y="291.52" width="5.74" height="6.53"/><rect class="cls-1" x="258.13" y="291.52" width="5.74" height="6.53"/><rect class="cls-1" x="281.07" y="291.52" width="5.74" height="6.53"/><rect class="cls-1" x="281.07" y="284.99" width="5.74" height="6.53"/><rect class="cls-1" x="275.34" y="298.05" width="5.74" height="6.53"/><rect class="cls-1" x="269.54" y="284.99" width="5.74" height="6.53"/><rect class="cls-1" x="275.34" y="304.59" width="5.74" height="6.53"/><rect class="cls-1" x="281.07" y="304.59" width="5.74" height="6.53"/><rect class="cls-1" x="252.39" y="278.65" width="5.74" height="6.53"/><rect class="cls-1" x="263.93" y="278.65" width="5.74" height="6.53"/><rect class="cls-1" x="258.13" y="272.12" width="5.74" height="6.53"/><rect class="cls-1" x="263.86" y="272.12" width="5.74" height="6.53"/><rect class="cls-1" x="286.69" y="298.05" width="5.74" height="6.53"/><rect class="cls-1" x="286.63" y="284.99" width="5.74" height="6.53"/><rect class="cls-1" x="292.39" y="291.52" width="5.74" height="6.53"/><rect class="cls-1" x="292.33" y="304.59" width="5.74" height="6.53"/><rect class="cls-1" x="286.6" y="311.12" width="5.74" height="6.53"/><rect class="cls-1" x="258.13" y="304.59" width="5.74" height="6.53"/><rect class="cls-1" x="252.39" y="311.12" width="5.74" height="6.53"/><rect class="cls-1" x="292.33" y="317.26" width="5.74" height="6.53"/><rect class="cls-1" x="292.33" y="323.8" width="5.74" height="6.53"/><rect class="cls-1" x="281.07" y="311.12" width="5.74" height="6.53"/><rect class="cls-1" x="281.07" y="272.12" width="5.74" height="6.53"/><rect class="cls-1" x="252.39" y="291.52" width="5.74" height="6.53"/><rect class="cls-1" x="275.34" y="278.65" width="5.74" height="6.53"/><rect class="cls-1" x="263.46" y="214.57" width="5.8" height="6.53"/><rect class="cls-1" x="263.9" y="220.24" width="5.8" height="6.53"/><rect class="cls-1" x="257.66" y="208.04" width="5.8" height="6.53"/><rect class="cls-1" x="251.86" y="214.57" width="5.8" height="6.53"/><rect class="cls-1" x="269.27" y="208.04" width="5.8" height="6.53"/><rect class="cls-1" x="275.07" y="208.04" width="5.8" height="6.53"/><rect class="cls-1" x="275.07" y="214.57" width="5.8" height="6.53"/><rect class="cls-1" x="280.87" y="214.57" width="5.8" height="6.53"/><rect class="cls-1" x="286.56" y="208.04" width="5.8" height="6.53"/><rect class="cls-1" x="292.27" y="214.57" width="5.8" height="6.53"/><rect class="cls-1" x="286.46" y="221.11" width="5.8" height="6.53"/><rect class="cls-1" x="257.66" y="214.57" width="5.8" height="6.53"/><rect class="cls-1" x="275.28" y="226.77" width="5.8" height="6.53"/><rect class="cls-1" x="269.47" y="220.24" width="5.8" height="6.53"/><rect class="cls-1" x="269.47" y="226.77" width="5.8" height="6.53"/><rect class="cls-1" x="251.86" y="221.11" width="5.8" height="6.53"/><rect class="cls-1" x="292.27" y="227.25" width="5.8" height="6.53"/><rect class="cls-1" x="292.27" y="233.78" width="5.8" height="6.53"/><rect class="cls-1" x="281.28" y="221.11" width="5.8" height="6.53"/><rect class="cls-1" x="263.86" y="537.17" width="5.74" height="6.53"/><rect class="cls-1" x="258.13" y="530.63" width="5.74" height="6.53"/><rect class="cls-1" x="252.39" y="537.17" width="5.74" height="6.53"/><rect class="cls-1" x="269.6" y="530.63" width="5.74" height="6.53"/><rect class="cls-1" x="263.86" y="524.1" width="5.74" height="6.53"/><rect class="cls-1" x="258.13" y="524.1" width="5.74" height="6.53"/><rect class="cls-1" x="281.07" y="524.1" width="5.74" height="6.53"/><rect class="cls-1" x="281.07" y="517.57" width="5.74" height="6.53"/><rect class="cls-1" x="275.34" y="530.63" width="5.74" height="6.53"/><rect class="cls-1" x="269.54" y="517.57" width="5.74" height="6.53"/><rect class="cls-1" x="275.34" y="537.17" width="5.74" height="6.53"/><rect class="cls-1" x="281.07" y="537.17" width="5.74" height="6.53"/><rect class="cls-1" x="252.39" y="511.23" width="5.74" height="6.53"/><rect class="cls-1" x="263.93" y="511.23" width="5.74" height="6.53"/><rect class="cls-1" x="258.13" y="504.7" width="5.74" height="6.53"/><rect class="cls-1" x="263.86" y="504.7" width="5.74" height="6.53"/><rect class="cls-1" x="286.69" y="530.63" width="5.74" height="6.53"/><rect class="cls-1" x="286.63" y="517.57" width="5.74" height="6.53"/><rect class="cls-1" x="292.39" y="524.1" width="5.74" height="6.53"/><rect class="cls-1" x="292.33" y="537.17" width="5.74" height="6.53"/><rect class="cls-1" x="292.33" y="511.23" width="5.74" height="6.53"/><rect class="cls-1" x="286.69" y="511.23" width="5.74" height="6.53"/><rect class="cls-1" x="281.07" y="504.7" width="5.74" height="6.53"/><rect class="cls-1" x="252.39" y="524.1" width="5.74" height="6.53"/><rect class="cls-1" x="275.34" y="511.23" width="5.74" height="6.53"/><rect class="cls-1" x="263.86" y="575.98" width="5.74" height="5.77"/><rect class="cls-1" x="258.13" y="569.44" width="5.74" height="6.53"/><rect class="cls-1" x="252.39" y="575.98" width="5.74" height="5.77"/><rect class="cls-1" x="269.6" y="569.44" width="5.74" height="6.53"/><rect class="cls-1" x="263.86" y="562.91" width="5.74" height="6.53"/><rect class="cls-1" x="258.13" y="562.91" width="5.74" height="6.53"/><rect class="cls-1" x="281.07" y="562.91" width="5.74" height="6.53"/><rect class="cls-1" x="281.07" y="556.38" width="5.74" height="6.53"/><rect class="cls-1" x="275.34" y="569.44" width="5.74" height="6.53"/><rect class="cls-1" x="269.54" y="556.38" width="5.74" height="6.53"/><rect class="cls-1" x="275.34" y="575.98" width="5.74" height="5.77"/><rect class="cls-1" x="281.07" y="575.98" width="5.74" height="5.77"/><rect class="cls-1" x="252.39" y="550.04" width="5.74" height="6.53"/><rect class="cls-1" x="263.93" y="550.04" width="5.74" height="6.53"/><rect class="cls-1" x="258.13" y="543.51" width="5.74" height="6.53"/><rect class="cls-1" x="263.86" y="543.51" width="5.74" height="6.53"/><rect class="cls-1" x="286.69" y="569.44" width="5.74" height="6.53"/><rect class="cls-1" x="286.63" y="556.38" width="5.74" height="6.53"/><rect class="cls-1" x="292.39" y="562.91" width="5.74" height="6.53"/><polygon class="cls-1" points="298.07 575.98 298.07 581.68 292.33 581.75 292.33 575.98 298.07 575.98"/><rect class="cls-1" x="258.13" y="575.98" width="5.74" height="5.77"/><rect class="cls-1" x="292.33" y="550.04" width="5.74" height="6.53"/><rect class="cls-1" x="286.69" y="550.04" width="5.74" height="6.53"/><rect class="cls-1" x="281.07" y="543.51" width="5.74" height="6.53"/><rect class="cls-1" x="252.39" y="562.91" width="5.74" height="6.53"/><rect class="cls-1" x="275.34" y="550.04" width="5.74" height="6.53"/><rect class="cls-1" x="263.86" y="453.01" width="5.74" height="6.53"/><rect class="cls-1" x="258.13" y="446.48" width="5.74" height="6.53"/><rect class="cls-1" x="252.39" y="453.01" width="5.74" height="6.53"/><rect class="cls-1" x="269.6" y="446.48" width="5.74" height="6.53"/><rect class="cls-1" x="263.86" y="439.94" width="5.74" height="6.53"/><rect class="cls-1" x="258.13" y="439.94" width="5.74" height="6.53"/><rect class="cls-1" x="281.07" y="439.94" width="5.74" height="6.53"/><rect class="cls-1" x="281.07" y="433.41" width="5.74" height="6.53"/><rect class="cls-1" x="275.34" y="446.48" width="5.74" height="6.53"/><rect class="cls-1" x="269.54" y="433.41" width="5.74" height="6.53"/><rect class="cls-1" x="275.34" y="453.01" width="5.74" height="6.53"/><rect class="cls-1" x="281.07" y="453.01" width="5.74" height="6.53"/><rect class="cls-1" x="252.39" y="427.08" width="5.74" height="6.53"/><rect class="cls-1" x="263.93" y="427.08" width="5.74" height="6.53"/><rect class="cls-1" x="258.13" y="420.54" width="5.74" height="6.53"/><rect class="cls-1" x="263.86" y="420.54" width="5.74" height="6.53"/><rect class="cls-1" x="286.69" y="446.48" width="5.74" height="6.53"/><rect class="cls-1" x="286.63" y="433.41" width="5.74" height="6.53"/><rect class="cls-1" x="292.39" y="439.94" width="5.74" height="6.53"/><rect class="cls-1" x="292.33" y="453.01" width="5.74" height="6.53"/><rect class="cls-1" x="292.33" y="427.08" width="5.74" height="6.53"/><rect class="cls-1" x="286.69" y="427.08" width="5.74" height="6.53"/><rect class="cls-1" x="281.07" y="420.54" width="5.74" height="6.53"/><rect class="cls-1" x="252.39" y="439.94" width="5.74" height="6.53"/><rect class="cls-1" x="275.34" y="427.08" width="5.74" height="6.53"/><rect class="cls-1" x="263.86" y="491.82" width="5.74" height="6.53"/><rect class="cls-1" x="258.13" y="485.29" width="5.74" height="6.53"/><rect class="cls-1" x="252.39" y="491.82" width="5.74" height="6.53"/><rect class="cls-1" x="269.6" y="485.29" width="5.74" height="6.53"/><rect class="cls-1" x="263.86" y="478.75" width="5.74" height="6.53"/><rect class="cls-1" x="258.13" y="478.75" width="5.74" height="6.53"/><rect class="cls-1" x="281.07" y="478.75" width="5.74" height="6.53"/><rect class="cls-1" x="281.07" y="472.22" width="5.74" height="6.53"/><rect class="cls-1" x="275.34" y="485.29" width="5.74" height="6.53"/><rect class="cls-1" x="269.54" y="472.22" width="5.74" height="6.53"/><rect class="cls-1" x="275.34" y="491.82" width="5.74" height="6.53"/><rect class="cls-1" x="281.07" y="491.82" width="5.74" height="6.53"/><rect class="cls-1" x="252.39" y="465.89" width="5.74" height="6.53"/><rect class="cls-1" x="263.93" y="465.89" width="5.74" height="6.53"/><rect class="cls-1" x="258.13" y="459.35" width="5.74" height="6.53"/><rect class="cls-1" x="263.86" y="459.35" width="5.74" height="6.53"/><rect class="cls-1" x="286.69" y="485.29" width="5.74" height="6.53"/><rect class="cls-1" x="286.63" y="472.22" width="5.74" height="6.53"/><rect class="cls-1" x="292.39" y="478.75" width="5.74" height="6.53"/><rect class="cls-1" x="292.33" y="491.82" width="5.74" height="6.53"/><rect class="cls-1" x="286.6" y="498.35" width="5.74" height="6.53"/><rect class="cls-1" x="258.13" y="491.82" width="5.74" height="6.53"/><rect class="cls-1" x="252.39" y="498.35" width="5.74" height="6.53"/><rect class="cls-1" x="292.33" y="504.5" width="5.74" height="6.53"/><rect class="cls-1" x="292.33" y="511.03" width="5.74" height="6.53"/><rect class="cls-1" x="281.07" y="498.35" width="5.74" height="6.53"/><rect class="cls-1" x="281.07" y="459.35" width="5.74" height="6.53"/><rect class="cls-1" x="252.39" y="478.75" width="5.74" height="6.53"/><rect class="cls-1" x="275.34" y="465.89" width="5.74" height="6.53"/><rect class="cls-1" x="263.46" y="401.81" width="5.8" height="6.53"/><rect class="cls-1" x="263.9" y="407.48" width="5.8" height="6.53"/><rect class="cls-1" x="257.66" y="395.27" width="5.8" height="6.53"/><rect class="cls-1" x="251.86" y="401.81" width="5.8" height="6.53"/><rect class="cls-1" x="269.27" y="395.27" width="5.8" height="6.53"/><rect class="cls-1" x="275.07" y="395.27" width="5.8" height="6.53"/><rect class="cls-1" x="275.07" y="401.81" width="5.8" height="6.53"/><rect class="cls-1" x="280.87" y="401.81" width="5.8" height="6.53"/><rect class="cls-1" x="286.56" y="395.27" width="5.8" height="6.53"/><rect class="cls-1" x="292.27" y="401.81" width="5.8" height="6.53"/><rect class="cls-1" x="286.46" y="408.34" width="5.8" height="6.53"/><rect class="cls-1" x="257.66" y="401.81" width="5.8" height="6.53"/><rect class="cls-1" x="275.28" y="414.01" width="5.8" height="6.53"/><rect class="cls-1" x="269.47" y="407.48" width="5.8" height="6.53"/><rect class="cls-1" x="269.47" y="414.01" width="5.8" height="6.53"/><rect class="cls-1" x="251.86" y="408.34" width="5.8" height="6.53"/><rect class="cls-1" x="292.27" y="414.49" width="5.8" height="6.53"/><rect class="cls-1" x="292.27" y="421.02" width="5.8" height="6.53"/><rect class="cls-1" x="281.28" y="408.34" width="5.8" height="6.53"/><rect class="cls-1" x="263.86" y="162.7" width="5.74" height="6.53"/><rect class="cls-1" x="258.13" y="156.16" width="5.74" height="6.53"/><rect class="cls-1" x="252.39" y="162.7" width="5.74" height="6.53"/><rect class="cls-1" x="269.6" y="156.16" width="5.74" height="6.53"/><rect class="cls-1" x="263.86" y="149.63" width="5.74" height="6.53"/><rect class="cls-1" x="258.13" y="149.63" width="5.74" height="6.53"/><rect class="cls-1" x="281.07" y="149.63" width="5.74" height="6.53"/><rect class="cls-1" x="281.07" y="143.1" width="5.74" height="6.53"/><rect class="cls-1" x="275.34" y="156.16" width="5.74" height="6.53"/><rect class="cls-1" x="269.54" y="143.1" width="5.74" height="6.53"/><rect class="cls-1" x="275.34" y="162.7" width="5.74" height="6.53"/><rect class="cls-1" x="281.07" y="162.7" width="5.74" height="6.53"/><rect class="cls-1" x="252.39" y="136.76" width="5.74" height="6.53"/><rect class="cls-1" x="263.93" y="136.76" width="5.74" height="6.53"/><rect class="cls-1" x="258.13" y="130.23" width="5.74" height="6.53"/><rect class="cls-1" x="263.86" y="130.23" width="5.74" height="6.53"/><rect class="cls-1" x="286.69" y="156.16" width="5.74" height="6.53"/><rect class="cls-1" x="286.63" y="143.1" width="5.74" height="6.53"/><rect class="cls-1" x="292.39" y="149.63" width="5.74" height="6.53"/><rect class="cls-1" x="292.33" y="162.7" width="5.74" height="6.53"/><rect class="cls-1" x="292.33" y="136.76" width="5.74" height="6.53"/><rect class="cls-1" x="286.69" y="136.76" width="5.74" height="6.53"/><rect class="cls-1" x="281.07" y="130.23" width="5.74" height="6.53"/><rect class="cls-1" x="252.39" y="149.63" width="5.74" height="6.53"/><rect class="cls-1" x="275.34" y="136.76" width="5.74" height="6.53"/><rect class="cls-1" x="263.86" y="201.51" width="5.74" height="6.53"/><rect class="cls-1" x="258.13" y="194.97" width="5.74" height="6.53"/><rect class="cls-1" x="252.39" y="201.51" width="5.74" height="6.53"/><rect class="cls-1" x="269.6" y="194.97" width="5.74" height="6.53"/><rect class="cls-1" x="263.86" y="188.44" width="5.74" height="6.53"/><rect class="cls-1" x="258.13" y="188.44" width="5.74" height="6.53"/><rect class="cls-1" x="281.07" y="188.44" width="5.74" height="6.53"/><rect class="cls-1" x="281.07" y="181.91" width="5.74" height="6.53"/><rect class="cls-1" x="275.34" y="194.97" width="5.74" height="6.53"/><rect class="cls-1" x="269.54" y="181.91" width="5.74" height="6.53"/><rect class="cls-1" x="275.34" y="201.51" width="5.74" height="6.53"/><rect class="cls-1" x="281.07" y="201.51" width="5.74" height="6.53"/><rect class="cls-1" x="252.39" y="175.57" width="5.74" height="6.53"/><rect class="cls-1" x="263.93" y="175.57" width="5.74" height="6.53"/><rect class="cls-1" x="258.13" y="169.04" width="5.74" height="6.53"/><rect class="cls-1" x="263.86" y="169.04" width="5.74" height="6.53"/><rect class="cls-1" x="286.69" y="194.97" width="5.74" height="6.53"/><rect class="cls-1" x="286.63" y="181.91" width="5.74" height="6.53"/><rect class="cls-1" x="292.39" y="188.44" width="5.74" height="6.53"/><rect class="cls-1" x="292.33" y="201.51" width="5.74" height="6.53"/><rect class="cls-1" x="258.13" y="201.51" width="5.74" height="6.53"/><rect class="cls-1" x="292.33" y="175.57" width="5.74" height="6.53"/><rect class="cls-1" x="286.69" y="175.57" width="5.74" height="6.53"/><rect class="cls-1" x="281.07" y="169.04" width="5.74" height="6.53"/><rect class="cls-1" x="252.39" y="188.44" width="5.74" height="6.53"/><rect class="cls-1" x="275.34" y="175.57" width="5.74" height="6.53"/><rect class="cls-1" x="263.86" y="78.54" width="5.74" height="6.53"/><rect class="cls-1" x="258.13" y="72.01" width="5.74" height="6.53"/><rect class="cls-1" x="252.39" y="78.54" width="5.74" height="6.53"/><rect class="cls-1" x="269.6" y="72.01" width="5.74" height="6.53"/><rect class="cls-1" x="263.86" y="65.47" width="5.74" height="6.53"/><rect class="cls-1" x="258.13" y="65.47" width="5.74" height="6.53"/><rect class="cls-1" x="281.07" y="65.47" width="5.74" height="6.53"/><rect class="cls-1" x="281.07" y="58.94" width="5.74" height="6.53"/><rect class="cls-1" x="275.34" y="72.01" width="5.74" height="6.53"/><rect class="cls-1" x="269.54" y="58.94" width="5.74" height="6.53"/><rect class="cls-1" x="275.34" y="78.54" width="5.74" height="6.53"/><rect class="cls-1" x="281.07" y="78.54" width="5.74" height="6.53"/><rect class="cls-1" x="252.39" y="52.61" width="5.74" height="6.53"/><rect class="cls-1" x="263.93" y="52.61" width="5.74" height="6.53"/><rect class="cls-1" x="258.13" y="46.07" width="5.74" height="6.53"/><rect class="cls-1" x="263.86" y="46.07" width="5.74" height="6.53"/><rect class="cls-1" x="286.69" y="72.01" width="5.74" height="6.53"/><rect class="cls-1" x="286.63" y="58.94" width="5.74" height="6.53"/><rect class="cls-1" x="292.39" y="65.47" width="5.74" height="6.53"/><rect class="cls-1" x="292.33" y="78.54" width="5.74" height="6.53"/><rect class="cls-1" x="292.33" y="52.61" width="5.74" height="6.53"/><rect class="cls-1" x="286.69" y="52.61" width="5.74" height="6.53"/><rect class="cls-1" x="281.07" y="46.07" width="5.74" height="6.53"/><rect class="cls-1" x="252.39" y="65.47" width="5.74" height="6.53"/><rect class="cls-1" x="275.34" y="52.61" width="5.74" height="6.53"/><rect class="cls-1" x="263.86" y="117.35" width="5.74" height="6.53"/><rect class="cls-1" x="258.13" y="110.82" width="5.74" height="6.53"/><rect class="cls-1" x="252.39" y="117.35" width="5.74" height="6.53"/><rect class="cls-1" x="269.6" y="110.82" width="5.74" height="6.53"/><rect class="cls-1" x="263.86" y="104.28" width="5.74" height="6.53"/><rect class="cls-1" x="258.13" y="104.28" width="5.74" height="6.53"/><rect class="cls-1" x="281.07" y="104.28" width="5.74" height="6.53"/><rect class="cls-1" x="281.07" y="97.75" width="5.74" height="6.53"/><rect class="cls-1" x="275.34" y="110.82" width="5.74" height="6.53"/><rect class="cls-1" x="269.54" y="97.75" width="5.74" height="6.53"/><rect class="cls-1" x="275.34" y="117.35" width="5.74" height="6.53"/><rect class="cls-1" x="281.07" y="117.35" width="5.74" height="6.53"/><rect class="cls-1" x="252.39" y="91.42" width="5.74" height="6.53"/><rect class="cls-1" x="263.93" y="91.42" width="5.74" height="6.53"/><rect class="cls-1" x="258.13" y="84.88" width="5.74" height="6.53"/><rect class="cls-1" x="263.86" y="84.88" width="5.74" height="6.53"/><rect class="cls-1" x="286.69" y="110.82" width="5.74" height="6.53"/><rect class="cls-1" x="286.63" y="97.75" width="5.74" height="6.53"/><rect class="cls-1" x="292.39" y="104.28" width="5.74" height="6.53"/><rect class="cls-1" x="292.33" y="117.35" width="5.74" height="6.53"/><rect class="cls-1" x="286.6" y="123.88" width="5.74" height="6.53"/><rect class="cls-1" x="258.13" y="117.35" width="5.74" height="6.53"/><rect class="cls-1" x="252.39" y="123.88" width="5.74" height="6.53"/><rect class="cls-1" x="292.33" y="130.03" width="5.74" height="6.53"/><rect class="cls-1" x="292.33" y="136.56" width="5.74" height="6.53"/><rect class="cls-1" x="281.07" y="123.88" width="5.74" height="6.53"/><rect class="cls-1" x="281.07" y="84.88" width="5.74" height="6.53"/><rect class="cls-1" x="252.39" y="104.28" width="5.74" height="6.53"/><rect class="cls-1" x="275.34" y="91.42" width="5.74" height="6.53"/><rect class="cls-1" x="263.46" y="27.34" width="5.8" height="6.53"/><rect class="cls-1" x="263.9" y="33.01" width="5.8" height="6.53"/><rect class="cls-1" x="257.66" y="20.8" width="5.8" height="6.53"/><rect class="cls-1" x="251.86" y="27.34" width="5.8" height="6.53"/><rect class="cls-1" x="269.27" y="20.8" width="5.8" height="6.53"/><rect class="cls-1" x="275.07" y="20.8" width="5.8" height="6.53"/><rect class="cls-1" x="275.07" y="27.34" width="5.8" height="6.53"/><rect class="cls-1" x="280.87" y="27.34" width="5.8" height="6.53"/><rect class="cls-1" x="286.56" y="20.8" width="5.8" height="6.53"/><rect class="cls-1" x="292.27" y="27.34" width="5.8" height="6.53"/><rect class="cls-1" x="286.46" y="33.87" width="5.8" height="6.53"/><rect class="cls-1" x="257.66" y="27.34" width="5.8" height="6.53"/><rect class="cls-1" x="275.28" y="39.54" width="5.8" height="6.53"/><rect class="cls-1" x="269.47" y="33.01" width="5.8" height="6.53"/><rect class="cls-1" x="269.47" y="39.54" width="5.8" height="6.53"/><rect class="cls-1" x="251.86" y="33.87" width="5.8" height="6.53"/><rect class="cls-1" x="292.27" y="40.02" width="5.8" height="6.53"/><rect class="cls-1" x="292.27" y="46.55" width="5.8" height="6.53"/><rect class="cls-1" x="281.28" y="33.87" width="5.8" height="6.53"/><rect class="cls-1" x="15.85" y="531.82" width="12.56" height="4.24"/><rect class="cls-1" x="15.29" y="521.37" width="13.13" height="4.25"/><rect class="cls-1" x="28.6" y="525.63" width="3.9" height="6.19"/><rect class="cls-1" x="11.62" y="536.06" width="4.23" height="7.07"/><rect class="cls-1" x="11.61" y="521.37" width="4.29" height="10.44"/><path class="cls-1" d="M35.8,543.12v-21.5h4.73v8.47h9.28v-8.47h4.73v21.5H49.81v-9.4H40.53v9.4Z"/><path class="cls-1" d="M80.58,543.12H75.43l-2.05-4.88H64l-1.94,4.88h-5l9.13-21.5h5Zm-8.72-8.5-3.23-8-3.17,8Z"/><path class="cls-1" d="M83.22,543.12V521.8H88v17.7H99.72v3.62Z"/><path class="cls-1" d="M124.24,543.12h-5.15l-2-4.88h-9.37l-1.94,4.88h-5l9.14-21.5h5Zm-8.72-8.5-3.23-8-3.16,8Z"/><rect class="cls-1" x="251.86" y="20.8" width="46.21" height="348.53"/></svg>