<svg id="图层_1" data-name="图层 1" xmlns="http://www.w3.org/2000/svg" viewBox="0 0 563.55 208.58"><defs><style>.cls-1{fill:#d1ff52;}</style></defs><title>画板 1 副本 15周边</title><rect class="cls-1" x="150.56" y="116.35" width="11.05" height="11.28"/><rect class="cls-1" x="161.61" y="105.07" width="11.05" height="11.28"/><rect class="cls-1" x="150.56" y="93.78" width="11.05" height="11.28"/><rect class="cls-1" x="161.61" y="127.64" width="11.05" height="11.28"/><rect class="cls-1" x="172.65" y="116.35" width="11.05" height="11.28"/><rect class="cls-1" x="172.65" y="105.07" width="11.05" height="11.28"/><rect class="cls-1" x="161.61" y="138.92" width="11.05" height="11.28"/><rect class="cls-1" x="183.7" y="127.52" width="11.05" height="11.28"/><rect class="cls-1" x="150.56" y="138.92" width="11.05" height="11.28"/><rect class="cls-1" x="194.41" y="93.78" width="11.05" height="11.28"/><rect class="cls-1" x="194.41" y="116.49" width="11.05" height="11.28"/><rect class="cls-1" x="205.46" y="105.07" width="11.05" height="11.28"/><rect class="cls-1" x="205.46" y="116.35" width="11.05" height="11.28"/><rect class="cls-1" x="172.65" y="93.78" width="11.05" height="11.28"/><rect class="cls-1" x="194.41" y="138.92" width="11.05" height="11.28"/><rect class="cls-1" x="84.95" y="116.35" width="11.05" height="11.28"/><rect class="cls-1" x="95.99" y="105.07" width="11.05" height="11.28"/><rect class="cls-1" x="84.95" y="93.78" width="11.05" height="11.28"/><rect class="cls-1" x="95.99" y="127.64" width="11.05" height="11.28"/><rect class="cls-1" x="107.04" y="116.35" width="11.05" height="11.28"/><rect class="cls-1" x="107.04" y="105.07" width="11.05" height="11.28"/><rect class="cls-1" x="95.99" y="138.92" width="11.05" height="11.28"/><rect class="cls-1" x="118.08" y="127.52" width="11.05" height="11.28"/><rect class="cls-1" x="84.95" y="138.92" width="11.05" height="11.28"/><rect class="cls-1" x="128.79" y="93.78" width="11.05" height="11.28"/><rect class="cls-1" x="128.79" y="116.49" width="11.05" height="11.28"/><rect class="cls-1" x="139.84" y="105.07" width="11.05" height="11.28"/><rect class="cls-1" x="139.84" y="116.35" width="11.05" height="11.28"/><rect class="cls-1" x="84.95" y="105.07" width="11.05" height="11.28"/><rect class="cls-1" x="107.04" y="93.78" width="11.05" height="11.28"/><rect class="cls-1" x="128.79" y="138.92" width="11.05" height="11.28"/><rect class="cls-1" x="292.84" y="116.35" width="11.05" height="11.28"/><rect class="cls-1" x="303.89" y="105.07" width="11.05" height="11.28"/><rect class="cls-1" x="292.84" y="93.78" width="11.05" height="11.28"/><rect class="cls-1" x="303.89" y="127.64" width="11.05" height="11.28"/><rect class="cls-1" x="314.94" y="116.35" width="11.05" height="11.28"/><rect class="cls-1" x="314.94" y="105.07" width="11.05" height="11.28"/><rect class="cls-1" x="303.89" y="138.92" width="11.05" height="11.28"/><rect class="cls-1" x="325.98" y="127.52" width="11.05" height="11.28"/><rect class="cls-1" x="292.84" y="138.92" width="11.05" height="11.28"/><rect class="cls-1" x="336.69" y="93.78" width="11.05" height="11.28"/><rect class="cls-1" x="336.69" y="116.49" width="11.05" height="11.28"/><rect class="cls-1" x="347.74" y="105.07" width="11.05" height="11.28"/><rect class="cls-1" x="347.74" y="116.35" width="11.05" height="11.28"/><rect class="cls-1" x="314.94" y="93.78" width="11.05" height="11.28"/><rect class="cls-1" x="336.69" y="138.92" width="11.05" height="11.28"/><rect class="cls-1" x="227.23" y="116.35" width="11.05" height="11.28"/><rect class="cls-1" x="238.27" y="105.07" width="11.05" height="11.28"/><rect class="cls-1" x="227.23" y="93.78" width="11.05" height="11.28"/><rect class="cls-1" x="238.27" y="127.64" width="11.05" height="11.28"/><rect class="cls-1" x="249.32" y="116.35" width="11.05" height="11.28"/><rect class="cls-1" x="249.32" y="105.07" width="11.05" height="11.28"/><rect class="cls-1" x="238.27" y="138.92" width="11.05" height="11.28"/><rect class="cls-1" x="260.36" y="127.52" width="11.05" height="11.28"/><rect class="cls-1" x="227.23" y="138.92" width="11.05" height="11.28"/><rect class="cls-1" x="271.08" y="93.78" width="11.05" height="11.28"/><rect class="cls-1" x="271.08" y="116.49" width="11.05" height="11.28"/><rect class="cls-1" x="282.12" y="105.07" width="11.05" height="11.28"/><rect class="cls-1" x="282.12" y="116.35" width="11.05" height="11.28"/><rect class="cls-1" x="227.23" y="105.07" width="11.05" height="11.28"/><rect class="cls-1" x="216.18" y="93.78" width="11.05" height="11.28"/><rect class="cls-1" x="249.32" y="93.78" width="11.05" height="11.28"/><rect class="cls-1" x="271.08" y="138.92" width="11.05" height="11.28"/><rect class="cls-1" x="379.42" y="115.56" width="11.05" height="11.42"/><rect class="cls-1" x="369.83" y="116.42" width="11.05" height="11.42"/><rect class="cls-1" x="390.46" y="104.14" width="11.05" height="11.42"/><rect class="cls-1" x="379.42" y="92.73" width="11.05" height="11.42"/><rect class="cls-1" x="390.46" y="126.98" width="11.05" height="11.42"/><rect class="cls-1" x="390.46" y="138.39" width="11.05" height="11.42"/><rect class="cls-1" x="379.42" y="138.39" width="11.05" height="11.42"/><rect class="cls-1" x="379.42" y="104.14" width="11.05" height="11.42"/><rect class="cls-1" x="358.79" y="138.8" width="11.05" height="11.42"/><rect class="cls-1" x="369.83" y="127.38" width="11.05" height="11.42"/><rect class="cls-1" x="358.79" y="127.38" width="11.05" height="11.42"/><rect class="cls-1" x="368.37" y="92.73" width="11.05" height="11.42"/><rect class="cls-1" x="89.11" y="58.93" width="17.22" height="5.81"/><rect class="cls-1" x="88.33" y="44.61" width="18" height="5.82"/><rect class="cls-1" x="106.58" y="50.44" width="5.35" height="8.48"/><rect class="cls-1" x="83.31" y="64.74" width="5.8" height="8.51"/><rect class="cls-1" x="83.29" y="44.61" width="5.89" height="14.32"/><path class="cls-1" d="M121.66,56.25v2.68H119.8v-8h2.82a4.81,4.81,0,0,1,1.46.2,2.74,2.74,0,0,1,1,.55,2.16,2.16,0,0,1,.58.83,2.75,2.75,0,0,1,.19,1,3,3,0,0,1-.19,1.1,2.32,2.32,0,0,1-.59.86,2.88,2.88,0,0,1-1,.56,4.68,4.68,0,0,1-1.44.2Zm0-1.41h1a1.37,1.37,0,0,0,1-.34,1.4,1.4,0,0,0,.32-1,1.59,1.59,0,0,0-.08-.5,1.14,1.14,0,0,0-.25-.39,1.22,1.22,0,0,0-.43-.25,1.82,1.82,0,0,0-.61-.09h-1Z"/><path class="cls-1" d="M134.26,58.93h-1.87V55.54h-3.26v3.39h-1.87v-8h1.87v3.35h3.26V50.91h1.87Z"/><path class="cls-1" d="M143.48,58.93H142a.65.65,0,0,1-.4-.12.6.6,0,0,1-.22-.28l-.47-1.4h-3l-.47,1.4a.61.61,0,0,1-.22.27.56.56,0,0,1-.39.13h-1.45l3.1-8h1.91Zm-5.15-3.07h2.19l-.74-2.19c0-.14-.1-.31-.16-.5s-.13-.39-.19-.61c-.06.22-.12.43-.19.62s-.12.36-.17.5Z"/><path class="cls-1" d="M146.43,57.44h3v1.49h-4.83v-8h1.86Z"/><path class="cls-1" d="M158.19,58.93h-1.45a.61.61,0,0,1-.39-.12.54.54,0,0,1-.22-.28l-.48-1.4h-3l-.48,1.4a.65.65,0,0,1-.6.4h-1.46l3.11-8h1.9ZM153,55.86h2.2l-.74-2.19c-.05-.14-.11-.31-.17-.5s-.13-.39-.19-.61c-.06.22-.12.43-.18.62s-.12.36-.18.5Z"/><path class="cls-1" d="M121.17,64.85l.17.05.15.1.16.17,4.42,5.59c0-.18,0-.35,0-.52s0-.33,0-.47V64.84h1.9v9.31h-1.13a1.08,1.08,0,0,1-.42-.08,1,1,0,0,1-.33-.28l-4.39-5.54c0,.16,0,.32,0,.47s0,.3,0,.44v5h-1.9V64.84h1.37Z"/><path class="cls-1" d="M136,64.84V66.5h-3.82v2.17h2.93v1.6h-2.93v2.22H136v1.66h-6V64.84Z"/><path class="cls-1" d="M144.44,64.84v1.71h-2.61v7.6h-2.16v-7.6h-2.62V64.84Z"/><path class="cls-1" d="M145.15,64.84H147a.79.79,0,0,1,.47.13.61.61,0,0,1,.25.34L149,70.16c.05.16.09.33.13.5s.07.37.1.57c0-.2.09-.39.14-.57s.1-.34.14-.5L151,65.31a.63.63,0,0,1,.25-.32.68.68,0,0,1,.45-.15h.64a.74.74,0,0,1,.46.13.6.6,0,0,1,.26.34l1.49,4.85q.07.23.15.48a5.38,5.38,0,0,1,.13.54c0-.19.07-.37.11-.54s.07-.33.11-.48l1.28-4.85a.58.58,0,0,1,.24-.33.78.78,0,0,1,.46-.14h1.7l-2.88,9.31h-1.95l-1.75-5.77q0-.13-.09-.3c0-.1-.07-.21-.1-.33q0,.18-.09.33t-.09.3L150,74.15H148Z"/><path class="cls-1" d="M169.22,69.49a5.07,5.07,0,0,1-.35,1.88,4.53,4.53,0,0,1-1,1.51,4.42,4.42,0,0,1-1.52,1,5,5,0,0,1-2,.37,5.1,5.1,0,0,1-2-.37,4.39,4.39,0,0,1-2.51-2.51,5.22,5.22,0,0,1,0-3.76,4.39,4.39,0,0,1,1-1.5,4.74,4.74,0,0,1,1.53-1,5.29,5.29,0,0,1,2-.36,5,5,0,0,1,2,.37,4.41,4.41,0,0,1,2.5,2.51A5,5,0,0,1,169.22,69.49Zm-2.21,0a4,4,0,0,0-.18-1.24,2.74,2.74,0,0,0-.51-.94,2.19,2.19,0,0,0-.82-.58,2.75,2.75,0,0,0-1.11-.21,2.82,2.82,0,0,0-1.11.21,2.11,2.11,0,0,0-.82.58,2.6,2.6,0,0,0-.52.94,4,4,0,0,0-.18,1.24,4.06,4.06,0,0,0,.18,1.25,2.47,2.47,0,0,0,.52.93,2.13,2.13,0,0,0,.82.59,3,3,0,0,0,1.11.2,2.93,2.93,0,0,0,1.11-.2,2.21,2.21,0,0,0,.82-.59,2.6,2.6,0,0,0,.51-.93A4.06,4.06,0,0,0,167,69.49Z"/><path class="cls-1" d="M172.92,70.7v3.45h-2.15V64.84h3a6.08,6.08,0,0,1,1.72.21,3.2,3.2,0,0,1,1.17.58,2.19,2.19,0,0,1,.65.87,2.84,2.84,0,0,1,.21,1.1,2.71,2.71,0,0,1-.13.86,2.67,2.67,0,0,1-.36.74,2.79,2.79,0,0,1-.58.61,3.3,3.3,0,0,1-.81.44,1.82,1.82,0,0,1,.41.27,1.27,1.27,0,0,1,.33.39l2,3.24h-2a.81.81,0,0,1-.77-.41L174.1,71a.68.68,0,0,0-.24-.26.81.81,0,0,0-.39-.08Zm0-1.48h.87a2,2,0,0,0,.75-.12,1.19,1.19,0,0,0,.51-.31,1.16,1.16,0,0,0,.29-.46,1.79,1.79,0,0,0,.09-.57,1.19,1.19,0,0,0-.4-1,1.87,1.87,0,0,0-1.24-.34h-.87Z"/><path class="cls-1" d="M181.93,68.61h.34a.78.78,0,0,0,.69-.3l2.1-3a.83.83,0,0,1,.39-.34,1.45,1.45,0,0,1,.54-.09h1.88l-2.76,3.76a1.72,1.72,0,0,1-.31.34,1.31,1.31,0,0,1-.32.22,1.73,1.73,0,0,1,.44.25,1.55,1.55,0,0,1,.37.42l2.81,4.32h-1.93a1.51,1.51,0,0,1-.32,0,.72.72,0,0,1-.22-.08.52.52,0,0,1-.17-.12,1.09,1.09,0,0,1-.13-.17l-2.11-3.24a.63.63,0,0,0-.29-.25,1.28,1.28,0,0,0-.48-.07h-.52v4h-2.16V64.84h2.16Z"/></svg>