<svg id="图层_1" data-name="图层 1" xmlns="http://www.w3.org/2000/svg" viewBox="0 0 402.58 142.92"><defs><style>.cls-1{fill:#d1ff52;}</style></defs><title>画板 22周边</title><rect class="cls-1" x="95.28" y="70.88" width="22.66" height="7.65"/><rect class="cls-1" x="94.25" y="52.03" width="23.68" height="7.66"/><rect class="cls-1" x="118.27" y="59.71" width="7.04" height="11.17"/><rect class="cls-1" x="87.64" y="78.53" width="7.64" height="12.75"/><rect class="cls-1" x="87.62" y="52.03" width="7.75" height="18.84"/><path class="cls-1" d="M131.26,91.27V52.48h8.54V67.75h16.74V52.48h8.54V91.27h-8.54v-17H139.8v17Z"/><path class="cls-1" d="M212.05,91.27h-9.29l-3.69-8.81H182.16l-3.49,8.81h-9.06l16.47-38.79h9ZM196.33,75.93l-5.83-14.4-5.72,14.4Z"/><path class="cls-1" d="M216.81,91.27V52.8h8.54V84.74h21.24v6.53Z"/><path class="cls-1" d="M290.82,91.27h-9.29l-3.69-8.81H260.93l-3.49,8.81h-9.06l16.48-38.79h9ZM275.1,75.93l-5.83-14.4-5.71,14.4Z"/></svg>